<?xml version="1.0" encoding="UTF-8"?>
<!DOCTYPE svg  PUBLIC '-//W3C//DTD SVG 1.1//EN'  'http://www.w3.org/Graphics/SVG/1.1/DTD/svg11.dtd'>
<svg enable-background="new 0 0 96.336 96.337" version="1.1" viewBox="0 0 96.336 96.337" xml:space="preserve" xmlns="http://www.w3.org/2000/svg">
	<path d="m92.456 64.241l-26.276-16.073 26.275-16.073c0.452-0.277 0.776-0.722 0.9-1.238s0.038-1.06-0.238-1.512l-7.721-12.621c-0.575-0.942-1.808-1.239-2.75-0.663l-25.082 15.344v-29.405c0-1.104-0.896-2-2-2h-14.793c-1.104 0-2 0.896-2 2v29.405l-25.083-15.343c-0.944-0.576-2.174-0.28-2.75 0.663l-7.721 12.621c-0.276 0.452-0.362 0.996-0.238 1.512s0.448 0.961 0.9 1.238l26.276 16.072-26.276 16.073c-0.452 0.276-0.776 0.722-0.9 1.237-0.124 0.517-0.038 1.061 0.238 1.513l7.721 12.62c0.576 0.942 1.806 1.24 2.75 0.664l25.083-15.344v29.405c0 1.104 0.896 2 2 2h14.793c1.104 0 2-0.896 2-2v-29.404l25.083 15.342c0.942 0.576 2.175 0.279 2.75-0.662l7.721-12.621c0.276-0.452 0.362-0.996 0.238-1.512-0.123-0.517-0.448-0.961-0.9-1.238z"/>
</svg>
