<?xml version="1.0" encoding="UTF-8"?>
<svg enable-background="new 0 0 512 512" version="1.1" viewBox="0 0 512 512" xml:space="preserve" xmlns="http://www.w3.org/2000/svg">
		<path d="m495.91 189.6c-18.965-15.914-47.343-13.424-63.228 5.506l-42.695 50.523v-146.5c0-12.279-5.106-24.17-14.008-32.625l-56.978-54.125c-8.399-7.979-19.405-12.374-30.99-12.374h-243.02c-24.812 0-44.999 20.187-44.999 44.999v421.99c0 24.812 20.187 44.999 44.999 44.999h299.99c24.812 0 44.999-20.187 44.999-44.999v-81.961c1.843-2.183 111.12-131.63 111.47-132.03 15.987-19.052 13.509-47.408-5.546-63.396zm-195.92-153.91c60.013 57.008 55.751 52.841 56.876 54.309h-56.876v-54.309zm59.998 431.3c0 8.271-6.729 15-15 15h-299.99c-8.271 0-15-6.729-15-15v-421.99c0-8.271 6.729-15 15-15h225v74.998c0 8.284 6.716 15 15 15h74.998v161.13c-6.443 7.624-58.178 68.843-63.77 75.46-4.467 5.324-7.682 11.711-9.296 18.47l-13.94 58.356c-1.319 5.526 0.596 11.324 4.948 14.976 4.356 3.656 10.399 4.529 15.607 2.272l55.05-23.862c4.133-1.792 7.988-4.226 11.401-7.151v47.343zm-35.677-97.168l22.978 19.28-5.11 6.052c-1.487 1.774-3.398 3.199-5.523 4.12l-27.524 11.931 6.971-29.178c0.538-2.253 1.609-4.382 3.064-6.116l5.144-6.089zm42.329-3.643l-22.967-19.271c2.33-2.757 77.698-91.943 82.91-98.11l22.919 19.231-82.862 98.15zm111.86-132.5l-9.649 11.43-22.908-19.222 9.682-11.457c5.289-6.303 14.71-7.125 20.997-1.849 6.412 5.379 7.119 14.852 1.878 21.098z"/>
		<path d="m225 90.003h-150c-8.284 0-15 6.716-15 15s6.716 15 15 15h150c8.284 0 15-6.716 15-15s-6.716-15-15-15z"/>
		<path d="m314.99 181h-240c-8.284 0-15 6.716-15 15s6.716 15 15 15h240c8.284 0 15-6.716 15-15s-6.716-15-15-15z"/>
		<path d="m314.99 271h-240c-8.284 0-15 6.716-15 15s6.716 15 15 15h240c8.284 0 15-6.716 15-15 0-8.285-6.716-15-15-15z"/>
		<path d="m225 361h-150c-8.284 0-15 6.716-15 15s6.716 15 15 15h150c8.284 0 15-6.716 15-15s-6.716-15-15-15z"/>
</svg>
