<?xml version="1.0" encoding="UTF-8"?>
<svg enable-background="new 0 0 490.667 490.667" version="1.1" viewBox="0 0 490.667 490.667" xml:space="preserve" xmlns="http://www.w3.org/2000/svg">
		<path d="m245.33 0c-135.27 0-245.33 110.06-245.33 245.33s110.06 245.33 245.33 245.33 245.33-110.06 245.33-245.33-110.06-245.33-245.33-245.33zm0 469.33c-123.52 0-224-100.48-224-224s100.48-224 224-224 224 100.48 224 224-100.48 224-224 224z"/>
		<path d="m245.33 106.67c-5.888 0-10.667 4.779-10.667 10.667v256c0 5.888 4.779 10.667 10.667 10.667s10.667-4.78 10.667-10.668v-256c0-5.888-4.779-10.666-10.667-10.666z"/>
		<path d="m338.22 195.12l-85.333-85.333c-4.16-4.16-10.923-4.16-15.083 0l-85.333 85.333c-4.16 4.16-4.16 10.923 0 15.083s10.923 4.16 15.083 0l77.781-77.781 77.781 77.803c2.091 2.069 4.821 3.115 7.552 3.115s5.461-1.045 7.552-3.136c4.16-4.162 4.16-10.924 0-15.084z"/>
</svg>
