<svg height="512" viewBox="0 0 16 16" width="512" xmlns="http://www.w3.org/2000/svg"><path d="m14 8c0-3.52557-2.60901-6.43408-6-6.92047v-.0795288c0-.552246-.447754-1-1-1s-1 .447754-1 1v.0795288c-3.39099.486389-6 3.3949-6 6.92047v1h14zm-6-5.5c-3.13983 0-5.71924 2.42505-5.97467 5.5h-1.02533c0-3.30859 2.69141-6 6-6 1.15967 0 2.23975.336182 3.15845.908142-.670837-.259888-1.39691-.408142-2.15845-.408142z" transform="translate(1 2)"/><path d="m15 0h-14c-.552307 0-1 .447693-1 1v1h16v-1c0-.552307-.447693-1-1-1z" transform="translate(0 12)"/></svg>